<?xml version="1.0" encoding="UTF-8" standalone="no"?>
<svg
   width="32"
   height="32"
   viewBox="0 0 32.000001 32.000001"
   version="1.1"
   id="svg1066"
   xmlns="http://www.w3.org/2000/svg"
   xmlns:svg="http://www.w3.org/2000/svg"
   xmlns:rdf="http://www.w3.org/1999/02/22-rdf-syntax-ns#"
   xmlns:cc="http://creativecommons.org/ns#"
   xmlns:dc="http://purl.org/dc/elements/1.1/">
  <defs
     id="defs1070" />
  <title
     id="title1061">bg</title>
  <g
     id="g24982"
     transform="scale(0.28008751)">
    <g
       id="g24974">
      <g
         id="g24967">
        <g
           id="g24961">
          <g
             id="g24956">
            <rect
               style="fill:#edce5b;fill-opacity:1;stroke-width:1.29096"
               id="rect4148"
               width="114.25001"
               height="114.25001"
               x="-2.5e-08"
               y="-2.5e-08"
               ry="15.491526" />
            <path
               id="path2404"
               style="fill:#272727;fill-opacity:1;fill-rule:evenodd;stroke:none;stroke-width:1.83093"
               d="M 80.277976,95.970748 H 76.967747 V 43.708301 h -0.03113 c -0.05768,-3.311229 -0.959078,-6.572179 -2.668874,-9.513688 -2.637838,-4.53723 -6.884973,-7.775998 -11.95672,-9.11735 -10.47008,-2.769959 -21.240138,3.502009 -24.008027,13.979934 -0.506875,1.918119 -0.709321,3.846591 -0.639874,5.73513 V 95.970748 H 34.630723 V 48.563493 c 0,-6.967044 1.839828,-13.83944 5.321487,-19.873304 3.481659,-6.033866 8.507579,-11.065046 14.536922,-14.549307 l 2.965904,-1.712552 2.96444,1.712552 c 6.029342,3.484261 11.056745,8.515441 14.536922,14.549307 3.481658,6.033864 5.321486,12.90626 5.321486,19.873304 z M 47.017566,60.832354 V 95.970748 H 39.55034 V 52.488465 c 1.612261,3.399963 4.185083,6.325208 7.467226,8.343889 z m -7.326831,-19.083578 2.212239,2.213895 -2.237359,2.239038 c -0.05914,-0.476202 -0.09758,-0.956842 -0.115348,-1.441916 v -1.051492 h -0.0092 c 0.01278,-0.65071 0.06207,-1.304378 0.14922,-1.959525 z m 3.508244,-8.474033 0.790614,3.002143 -3.013198,0.795643 c 0.588168,-1.375366 1.338886,-2.64721 2.222584,-3.797786 z m 6.258411,-2.465307 -3.013197,-0.785291 c 1.170403,-0.902121 2.447201,-1.656354 3.800844,-2.243473 z m 3.67819,-3.998914 3.356039,3.357077 v 9.068544 c -0.367962,0.05175 -0.721148,0.143453 -1.058094,0.272116 l -4.626924,-7.889871 1.165972,-4.48399 c 0.382738,-0.12126 0.771389,-0.229228 1.163007,-0.323876 z m 4.109705,1.975794 -2.31272,-2.31446 c 0.777321,-0.106491 1.566452,-0.161195 2.36296,-0.161195 0.753685,0 1.513264,0.0488 2.275792,0.147884 z m 5.098351,-1.737693 1.197007,4.58899 -4.61363,7.876562 c -0.29705,-0.113863 -0.605892,-0.201129 -0.92658,-0.255848 v -9.090728 l 3.373781,-3.376305 c 0.15215,0.0355 0.302946,0.07099 0.455151,0.11092 0.172839,0.04584 0.344324,0.09464 0.514271,0.146401 z m 2.544737,3.778561 -0.827563,-3.173697 c 1.460057,0.59895 2.819614,1.382762 4.055033,2.332209 z m 5.506208,5.576889 0.883717,-3.271302 c 0.493582,0.634443 0.94725,1.305857 1.358073,2.011287 0.407877,0.699516 0.762546,1.419734 1.066956,2.154742 z m -2.781182,24.398703 c 3.292488,-2.033471 5.862363,-4.933571 7.467227,-8.38234 v 43.550312 h -7.467227 z m -9.354346,2.916368 c 2.572803,-0.124229 5.102764,-0.760148 7.467226,-1.890019 v 34.141623 h -7.467226 z m -5.986499,-0.635922 c 1.356608,0.357892 2.729458,0.567894 4.09936,0.634443 V 95.970748 H 48.904705 V 61.854265 c 1.063991,0.502823 2.188584,0.916912 3.367849,1.228957 z m -2.877233,-5.955484 0.842337,3.257993 c -1.471865,-0.635923 -2.822561,-1.459663 -4.034343,-2.431295 z m -5.433796,-5.48224 -0.829045,3.14116 C 42.214781,53.569532 41.458168,52.238531 40.877397,50.829152 Z M 43.28322,44.718384 h 9.045488 c 0.04724,0.356412 0.131461,0.702472 0.251222,1.032263 l -7.805637,4.546105 -4.507217,-1.190506 c -0.106375,-0.359371 -0.199499,-0.721697 -0.28374,-1.086983 z m 27.746804,-1.332479 h -9.020367 c -0.05475,-0.388949 -0.156728,-0.764586 -0.298515,-1.118039 l 7.863275,-4.520965 4.745146,1.282199 c 0.08276,0.27803 0.158193,0.55754 0.227585,0.83705 z m 0.15215,11.774911 -0.886682,-3.41919 3.410728,-0.885855 c -0.638408,1.558749 -1.488124,3.005101 -2.524046,4.305045 z m -10.202599,-8.021491 7.74357,4.554975 1.253161,4.828572 c -0.104916,0.106492 -0.211326,0.211482 -0.319204,0.315004 l -4.836785,-1.254097 -4.544166,-7.730152 c 0.258601,-0.212959 0.493563,-0.45254 0.703424,-0.714302 z m 10.050376,-2.243474 3.48609,3.488698 c -0.02069,0.07839 -0.03992,0.156764 -0.0606,0.236623 v 0 c -0.04578,0.173022 -0.09465,0.346057 -0.144826,0.51761 L 69.487143,50.3914 61.734694,45.831986 c 0.113889,-0.298734 0.200981,-0.612259 0.255671,-0.936135 z M 61.283986,61.400249 57.821551,57.93521 v -9.010867 c 0.403428,-0.05324 0.790614,-0.156764 1.155628,-0.301692 l 4.542702,7.727193 -1.241353,4.788639 c -0.329531,0.09761 -0.660563,0.184862 -0.994542,0.261766 z m -9.321831,-0.372681 -1.216212,-4.705823 4.547132,-7.728674 c 0.323635,0.134574 0.664993,0.235144 1.019662,0.298735 v 9.043404 l -3.367866,3.370388 c -0.06353,-0.01629 -0.12707,-0.03105 -0.190636,-0.0488 -0.267463,-0.07099 -0.530513,-0.147883 -0.79208,-0.229227 z m -7.643086,-4.825614 1.214731,-4.599345 7.777568,-4.531314 c 0.206896,0.266201 0.440375,0.511695 0.696028,0.729093 l -4.563391,7.753812 -4.598837,1.190506 c -0.178882,-0.177472 -0.35467,-0.357891 -0.526099,-0.542752 z m 10.405063,5.460056 2.343754,-2.345517 2.401392,2.404673 c -1.566452,0.193735 -3.159488,0.175989 -4.745146,-0.05915 z m 11.495656,-2.225726 c -0.721167,0.421483 -1.465971,0.786768 -2.22555,1.098813 l 0.874854,-3.377781 3.407763,0.882897 c -0.64727,0.508738 -1.332971,0.976066 -2.057067,1.396071 z m 8.647956,-12.836754 -2.457548,-2.457913 2.47972,-2.481576 c 0.223154,1.628257 0.21724,3.289049 -0.02215,4.939489 z M 64.842489,32.40072 69.512275,31.182117 c 0.195067,0.186338 0.387169,0.377116 0.574857,0.572328 l -1.26499,4.682162 -7.880997,4.531316 C 60.729818,40.712074 60.491907,40.47841 60.233289,40.269886 Z m -7.66969,8.675161 c 1.655123,0 2.999904,1.345788 2.999904,3.002144 0,1.656354 -1.344781,3.003622 -2.999904,3.003622 -1.655106,0 -3.00137,-1.347268 -3.00137,-3.003622 0,-1.656356 1.346264,-3.002144 3.00137,-3.002144 z m -12.125186,-9.855313 4.456996,1.162405 4.619527,7.876561 c -0.245308,0.196693 -0.47141,0.417047 -0.675339,0.656626 l -7.886911,-4.597864 -1.170404,-4.441102 c 0.212791,-0.224792 0.431513,-0.443668 0.656131,-0.656626 z m -4.921007,8.318748 c 0.06646,-0.248454 0.137503,-0.493948 0.212809,-0.736486 l 4.462891,-1.178676 7.857361,4.580118 c -0.132925,0.317961 -0.232016,0.655149 -0.295567,1.002686 h -9.080953 l -3.258505,-3.25947 c 0.0326,-0.136055 0.06646,-0.272114 0.101986,-0.408172 z m 42.666481,9.024177 c 0,-7.409232 -1.956586,-14.716421 -5.65695,-21.133318 C 73.434309,21.014756 68.089167,15.665616 61.677086,11.960999 L 57.455128,9.5208337 53.23163,11.960999 c -6.410596,3.704617 -11.755739,9.053757 -15.457585,15.469176 -3.701828,6.416897 -5.658414,13.724086 -5.658414,21.133318 v 49.924324 h 50.67753 z M 28.495956,104.72917 h 57.258092 v -3.11898 H 28.495956 Z" />
          </g>
        </g>
      </g>
    </g>
  </g>
  <metadata
     id="metadata2469">
    <rdf:RDF>
      <cc:Work
         rdf:about="">
        <dc:title>bg</dc:title>
      </cc:Work>
    </rdf:RDF>
  </metadata>
</svg>
