<?xml version="1.0" encoding="UTF-8" standalone="no"?>
<svg
   width="650"
   height="150"
   viewBox="0 0 650 150"
   version="1.1"
   id="svg1066"
   xmlns="http://www.w3.org/2000/svg"
   xmlns:svg="http://www.w3.org/2000/svg"
   xmlns:rdf="http://www.w3.org/1999/02/22-rdf-syntax-ns#"
   xmlns:cc="http://creativecommons.org/ns#"
   xmlns:dc="http://purl.org/dc/elements/1.1/">
  <defs
     id="defs1070" />
  <title
     id="title1061">brand</title>
  <metadata
     id="metadata2469">
    <rdf:RDF>
      <cc:Work
         rdf:about="">
        <dc:title>brand</dc:title>
      </cc:Work>
    </rdf:RDF>
  </metadata>
  <g
     id="g999">
    <rect
       style="fill:#edce5b;fill-opacity:1;stroke-width:1.29096"
       id="rect4148"
       width="650"
       height="150"
       x="0"
       y="0"
       ry="10" />
    <g
       id="g577"
       style="fill:#272727;fill-opacity:1"
       transform="translate(9.2493615,-0.314064)">
      <path
         id="path2404"
         style="fill:#272727;fill-opacity:1;fill-rule:evenodd;stroke:none;stroke-width:1.83093"
         d="M 91.042047,114.15981 H 87.731818 V 61.897366 h -0.03113 c -0.05768,-3.311229 -0.959078,-6.572179 -2.668874,-9.513688 -2.637838,-4.53723 -6.884973,-7.775998 -11.95672,-9.11735 -10.47008,-2.769959 -21.240138,3.502009 -24.008027,13.979934 -0.506875,1.918119 -0.709321,3.846591 -0.639874,5.73513 V 114.15981 H 45.394794 V 66.752558 c 0,-6.967044 1.839828,-13.83944 5.321487,-19.873304 3.481659,-6.033866 8.507579,-11.065046 14.536922,-14.549307 l 2.965904,-1.712552 2.96444,1.712552 c 6.029342,3.484261 11.056745,8.515441 14.536922,14.549307 3.481658,6.033864 5.321486,12.90626 5.321486,19.873304 z M 57.781637,79.021419 V 114.15981 H 50.314411 V 70.67753 c 1.612261,3.399963 4.185083,6.325208 7.467226,8.343889 z m -7.326831,-19.083578 2.212239,2.213895 -2.237359,2.239038 c -0.05914,-0.476202 -0.09758,-0.956842 -0.115348,-1.441916 v -1.051492 h -0.0092 c 0.01278,-0.65071 0.06207,-1.304378 0.14922,-1.959525 z m 3.508244,-8.474033 0.790614,3.002143 -3.013198,0.795643 c 0.588168,-1.375366 1.338886,-2.64721 2.222584,-3.797786 z m 6.258411,-2.465307 -3.013197,-0.785291 c 1.170403,-0.902121 2.447201,-1.656354 3.800844,-2.243473 z m 3.67819,-3.998914 3.356039,3.357077 v 9.068544 c -0.367962,0.05175 -0.721148,0.143453 -1.058094,0.272116 l -4.626924,-7.889871 1.165972,-4.48399 c 0.382738,-0.12126 0.771389,-0.229228 1.163007,-0.323876 z m 4.109705,1.975794 -2.31272,-2.31446 c 0.777321,-0.106491 1.566452,-0.161195 2.36296,-0.161195 0.753685,0 1.513264,0.0488 2.275792,0.147884 z m 5.098351,-1.737693 1.197007,4.58899 -4.61363,7.876562 c -0.29705,-0.113863 -0.605892,-0.201129 -0.92658,-0.255848 v -9.090728 l 3.373781,-3.376305 c 0.15215,0.0355 0.302946,0.07099 0.455151,0.11092 0.172839,0.04584 0.344324,0.09464 0.514271,0.146401 z m 2.544737,3.778561 -0.827563,-3.173697 c 1.460057,0.59895 2.819614,1.382762 4.055033,2.332209 z m 5.506208,5.576889 0.883717,-3.271302 c 0.493582,0.634443 0.94725,1.305857 1.358073,2.011287 0.407877,0.699516 0.762546,1.419734 1.066956,2.154742 z M 78.37747,78.991841 c 3.292488,-2.033471 5.862363,-4.933571 7.467227,-8.38234 V 114.15981 H 78.37747 Z m -9.354346,2.916368 c 2.572803,-0.124229 5.102764,-0.760148 7.467226,-1.890019 v 34.14162 h -7.467226 z m -5.986499,-0.635922 c 1.356608,0.357892 2.729458,0.567894 4.09936,0.634443 v 32.25308 H 59.668776 V 80.04333 c 1.063991,0.502823 2.188584,0.916912 3.367849,1.228957 z m -2.877233,-5.955484 0.842337,3.257993 c -1.471865,-0.635923 -2.822561,-1.459663 -4.034343,-2.431295 z m -5.433796,-5.48224 -0.829045,3.14116 c -0.917699,-1.217126 -1.674312,-2.548127 -2.255083,-3.957506 z m -0.678305,-6.927114 h 9.045488 c 0.04724,0.356412 0.131461,0.702472 0.251222,1.032263 l -7.805637,4.546105 -4.507217,-1.190506 C 50.924772,66.93594 50.831648,66.573614 50.747407,66.208328 Z M 81.794095,61.57497 H 72.773728 C 72.718978,61.186021 72.617,60.810384 72.475213,60.456931 l 7.863275,-4.520965 4.745146,1.282199 c 0.08276,0.27803 0.158193,0.55754 0.227585,0.83705 z m 0.15215,11.774911 -0.886682,-3.41919 3.410728,-0.885855 c -0.638408,1.558749 -1.488124,3.005101 -2.524046,4.305045 z m -10.202599,-8.021491 7.74357,4.554975 1.253161,4.828572 c -0.104916,0.106492 -0.211326,0.211482 -0.319204,0.315004 l -4.836785,-1.254097 -4.544166,-7.730152 c 0.258601,-0.212959 0.493563,-0.45254 0.703424,-0.714302 z m 10.050376,-2.243474 3.48609,3.488698 c -0.02069,0.07839 -0.03992,0.156764 -0.0606,0.236623 v 0 c -0.04578,0.173022 -0.09465,0.346057 -0.144826,0.51761 l -4.823472,1.252618 -7.752449,-4.559414 c 0.113889,-0.298734 0.200981,-0.612259 0.255671,-0.936135 z m -9.745965,16.504398 -3.462435,-3.465039 v -9.010867 c 0.403428,-0.05324 0.790614,-0.156764 1.155628,-0.301692 l 4.542702,7.727193 -1.241353,4.788639 c -0.329531,0.09761 -0.660563,0.184862 -0.994542,0.261766 z m -9.321831,-0.372681 -1.216212,-4.705823 4.547132,-7.728674 c 0.323635,0.134574 0.664993,0.235144 1.019662,0.298735 v 9.043404 l -3.367866,3.370388 c -0.06353,-0.01629 -0.12707,-0.03105 -0.190636,-0.0488 -0.267463,-0.07099 -0.530513,-0.147883 -0.79208,-0.229227 z m -7.643086,-4.825614 1.214731,-4.599345 7.777568,-4.531314 c 0.206896,0.266201 0.440375,0.511695 0.696028,0.729093 l -4.563391,7.753812 -4.598837,1.190506 C 55.430357,74.756299 55.254569,74.57588 55.08314,74.391019 Z m 10.405063,5.460056 2.343754,-2.345517 2.401392,2.404673 c -1.566452,0.193735 -3.159488,0.175989 -4.745146,-0.05915 z m 11.495656,-2.225726 c -0.721167,0.421483 -1.465971,0.786768 -2.22555,1.098813 l 0.874854,-3.377781 3.407763,0.882897 c -0.64727,0.508738 -1.332971,0.976066 -2.057067,1.396071 z m 8.647956,-12.836754 -2.457548,-2.457913 2.47972,-2.481576 c 0.223154,1.628257 0.21724,3.289049 -0.02215,4.939489 z M 75.60656,50.589785 80.276346,49.371182 c 0.195067,0.186338 0.387169,0.377116 0.574857,0.572328 l -1.26499,4.682162 -7.880997,4.531316 C 71.493889,58.901139 71.255978,58.667475 70.99736,58.458951 Z m -7.66969,8.675161 c 1.655123,0 2.999904,1.345788 2.999904,3.002144 0,1.656354 -1.344781,3.003622 -2.999904,3.003622 -1.655106,0 -3.00137,-1.347268 -3.00137,-3.003622 0,-1.656356 1.346264,-3.002144 3.00137,-3.002144 z m -12.125186,-9.855313 4.456996,1.162405 4.619527,7.876561 c -0.245308,0.196693 -0.47141,0.417047 -0.675339,0.656626 l -7.886911,-4.597864 -1.170404,-4.441102 c 0.212791,-0.224792 0.431513,-0.443668 0.656131,-0.656626 z m -4.921007,8.318748 c 0.06646,-0.248454 0.137503,-0.493948 0.212809,-0.736486 l 4.462891,-1.178676 7.857361,4.580118 c -0.132925,0.317961 -0.232016,0.655149 -0.295567,1.002686 h -9.080953 l -3.258505,-3.25947 c 0.0326,-0.136055 0.06646,-0.272114 0.101986,-0.408172 z m 42.666481,9.024177 c 0,-7.409232 -1.956586,-14.716421 -5.65695,-21.133318 C 84.19838,39.203821 78.853238,33.854681 72.441157,30.150064 l -4.221958,-2.440166 -4.223498,2.440166 c -6.410596,3.704617 -11.755739,9.053757 -15.457585,15.469176 -3.701828,6.416897 -5.658414,13.724086 -5.658414,21.133318 v 49.924322 h 50.67753 z M 39.260027,122.91823 h 57.258092 v -3.11898 H 39.260027 Z" />
      <g
         aria-label="Novo Hinário Adventista"
         id="text437"
         style="font-weight:bold;font-size:40px;line-height:1.25;font-family:Ubuntu;-inkscape-font-specification:'Ubuntu Bold';fill:#272727;fill-opacity:1">
        <path
           d="m 150.36125,91.014061 q -2.68,-4.76 -5.8,-9.4 -3.12,-4.64 -6.64,-8.76 v 18.16 h -6.16 v -27.72 h 5.08 q 1.32,1.32 2.92,3.24 1.6,1.92 3.24,4.12 1.68,2.16 3.32,4.52 1.64,2.32 3.08,4.48 v -16.36 h 6.2 v 27.72 z"
           id="path511"
           style="fill:#272727;fill-opacity:1" />
        <path
           d="m 181.28127,80.454061 q 0,2.48 -0.72,4.56 -0.72,2.04 -2.08,3.52 -1.36,1.44 -3.28,2.24 -1.88,0.8 -4.24,0.8 -2.32,0 -4.24,-0.8 -1.88,-0.8 -3.24,-2.24 -1.36,-1.48 -2.12,-3.52 -0.76,-2.08 -0.76,-4.56 0,-2.48 0.76,-4.52 0.8,-2.04 2.16,-3.48 1.4,-1.44 3.28,-2.24 1.92,-0.8 4.16,-0.8 2.28,0 4.16,0.8 1.92,0.8 3.28,2.24 1.36,1.44 2.12,3.48 0.76,2.04 0.76,4.52 z m -6.08,0 q 0,-2.76 -1.12,-4.32 -1.08,-1.6 -3.12,-1.6 -2.04,0 -3.16,1.6 -1.12,1.56 -1.12,4.32 0,2.76 1.12,4.4 1.12,1.6 3.16,1.6 2.04,0 3.12,-1.6 1.12,-1.64 1.12,-4.4 z"
           id="path513"
           style="fill:#272727;fill-opacity:1" />
        <path
           d="m 191.04129,91.014061 q -2.04,-4 -4.16,-9.36 -2.08,-5.36 -3.96,-11.68 h 6.32 q 0.4,1.56 0.92,3.4 0.56,1.8 1.12,3.68 0.6,1.84 1.16,3.6 0.6,1.76 1.16,3.2 0.52,-1.44 1.12,-3.2 0.6,-1.76 1.16,-3.6 0.6,-1.88 1.12,-3.68 0.56,-1.84 0.96,-3.4 h 6.16 q -1.88,6.32 -4,11.68 -2.08,5.36 -4.12,9.36 z"
           id="path515"
           style="fill:#272727;fill-opacity:1" />
        <path
           d="m 226.44126,80.454061 q 0,2.48 -0.72,4.56 -0.72,2.04 -2.08,3.52 -1.36,1.44 -3.28,2.24 -1.88,0.8 -4.24,0.8 -2.32,0 -4.24,-0.8 -1.88,-0.8 -3.24,-2.24 -1.36,-1.48 -2.12,-3.52 -0.76,-2.08 -0.76,-4.56 0,-2.48 0.76,-4.52 0.8,-2.04 2.16,-3.48 1.4,-1.44 3.28,-2.24 1.92,-0.8 4.16,-0.8 2.28,0 4.16,0.8 1.92,0.8 3.28,2.24 1.36,1.44 2.12,3.48 0.76,2.04 0.76,4.52 z m -6.08,0 q 0,-2.76 -1.12,-4.32 -1.08,-1.6 -3.12,-1.6 -2.04,0 -3.16,1.6 -1.12,1.56 -1.12,4.32 0,2.76 1.12,4.4 1.12,1.6 3.16,1.6 2.04,0 3.12,-1.6 1.12,-1.64 1.12,-4.4 z"
           id="path517"
           style="fill:#272727;fill-opacity:1" />
        <path
           d="m 257.76126,63.294061 h 6.24 v 27.72 h -6.24 v -11.76 h -10.48 v 11.76 h -6.24 v -27.72 h 6.24 v 10.6 h 10.48 z"
           id="path519"
           style="fill:#272727;fill-opacity:1" />
        <path
           d="m 275.96123,91.014061 h -5.96 v -21.04 h 5.96 z m 0.56,-27.12 q 0,1.64 -1.08,2.6 -1.04,0.92 -2.48,0.92 -1.44,0 -2.52,-0.92 -1.04,-0.96 -1.04,-2.6 0,-1.64 1.04,-2.56 1.08,-0.96 2.52,-0.96 1.44,0 2.48,0.96 1.08,0.92 1.08,2.56 z"
           id="path521"
           style="fill:#272727;fill-opacity:1" />
        <path
           d="m 281.56122,70.694061 q 1.52,-0.44 3.92,-0.8 2.4,-0.4 5.04,-0.4 2.68,0 4.44,0.72 1.8,0.68 2.84,1.96 1.04,1.28 1.48,3.04 0.44,1.76 0.44,3.92 v 11.88 h -5.96 v -11.16 q 0,-2.88 -0.76,-4.08 -0.76,-1.2 -2.84,-1.2 -0.64,0 -1.36,0.08 -0.72,0.04 -1.28,0.12 v 16.24 h -5.96 z"
           id="path523"
           style="fill:#272727;fill-opacity:1" />
        <path
           d="m 313.16124,86.854061 q 0.88,0 1.68,-0.04 0.8,-0.04 1.28,-0.12 v -4.52 q -0.36,-0.08 -1.08,-0.16 -0.72,-0.08 -1.32,-0.08 -0.84,0 -1.6,0.12 -0.72,0.08 -1.28,0.36 -0.56,0.28 -0.88,0.76 -0.32,0.48 -0.32,1.2 0,1.4 0.92,1.96 0.96,0.52 2.6,0.52 z m -0.48,-17.44 q 2.64,0 4.4,0.6 1.76,0.6 2.8,1.72 1.08,1.12 1.52,2.72 0.44,1.6 0.44,3.56 v 12.4 q -1.28,0.28 -3.56,0.64 -2.28,0.4 -5.52,0.4 -2.04,0 -3.72,-0.36 -1.64,-0.36 -2.84,-1.16 -1.2,-0.84 -1.84,-2.16 -0.64,-1.32 -0.64,-3.24 0,-1.84 0.72,-3.12 0.76,-1.28 2,-2.04 1.24,-0.76 2.84,-1.08 1.6,-0.36 3.32,-0.36 1.16,0 2.04,0.12 0.92,0.08 1.48,0.24 v -0.56 q 0,-1.52 -0.92,-2.44 -0.92,-0.92 -3.2,-0.92 -1.52,0 -3,0.24 -1.48,0.2 -2.56,0.6 l -0.76,-4.8 q 0.52,-0.16 1.28,-0.32 0.8,-0.2 1.72,-0.32 0.92,-0.16 1.92,-0.24 1.04,-0.12 2.08,-0.12 z m 5.52,-7 -6.6,5.56 -2.72,-2.44 5.68,-6.48 z"
           id="path525"
           style="fill:#272727;fill-opacity:1" />
        <path
           d="m 339.92122,75.254061 q -0.8,-0.2 -1.88,-0.4 -1.08,-0.24 -2.32,-0.24 -0.56,0 -1.36,0.12 -0.76,0.08 -1.16,0.2 v 16.08 h -5.96 v -19.92 q 1.6,-0.56 3.76,-1.04 2.2,-0.52 4.88,-0.52 0.48,0 1.16,0.08 0.68,0.04 1.36,0.16 0.68,0.08 1.36,0.24 0.68,0.12 1.16,0.32 z"
           id="path527"
           style="fill:#272727;fill-opacity:1" />
        <path
           d="m 350.08126,91.014061 h -5.96 v -21.04 h 5.96 z m 0.56,-27.12 q 0,1.64 -1.08,2.6 -1.04,0.92 -2.48,0.92 -1.44,0 -2.52,-0.92 -1.04,-0.96 -1.04,-2.6 0,-1.64 1.04,-2.56 1.08,-0.96 2.52,-0.96 1.44,0 2.48,0.96 1.08,0.92 1.08,2.56 z"
           id="path529"
           style="fill:#272727;fill-opacity:1" />
        <path
           d="m 375.36124,80.454061 q 0,2.48 -0.72,4.56 -0.72,2.04 -2.08,3.52 -1.36,1.44 -3.28,2.24 -1.88,0.8 -4.24,0.8 -2.32,0 -4.24,-0.8 -1.88,-0.8 -3.24,-2.24 -1.36,-1.48 -2.12,-3.52 -0.76,-2.08 -0.76,-4.56 0,-2.48 0.76,-4.52 0.8,-2.04 2.16,-3.48 1.4,-1.44 3.28,-2.24 1.92,-0.8 4.16,-0.8 2.28,0 4.16,0.8 1.92,0.8 3.28,2.24 1.36,1.44 2.12,3.48 0.76,2.04 0.76,4.52 z m -6.08,0 q 0,-2.76 -1.12,-4.32 -1.08,-1.6 -3.12,-1.6 -2.04,0 -3.16,1.6 -1.12,1.56 -1.12,4.32 0,2.76 1.12,4.4 1.12,1.6 3.16,1.6 2.04,0 3.12,-1.6 1.12,-1.64 1.12,-4.4 z"
           id="path531"
           style="fill:#272727;fill-opacity:1" />
        <path
           d="m 408.52126,91.014061 q -0.44,-1.44 -1,-2.96 -0.52,-1.52 -1.04,-3.04 h -10.8 q -0.52,1.52 -1.08,3.04 -0.52,1.52 -0.96,2.96 h -6.48 q 1.56,-4.48 2.96,-8.28 1.4,-3.8 2.72,-7.16 1.36,-3.36 2.64,-6.36 1.32,-3.04 2.72,-5.92 h 5.96 q 1.36,2.88 2.68,5.92 1.32,3 2.64,6.36 1.36,3.36 2.76,7.16 1.4,3.8 2.96,8.28 z m -7.48,-21.44 q -0.2,0.6 -0.6,1.64 -0.4,1.04 -0.92,2.4 -0.52,1.36 -1.16,3 -0.6,1.64 -1.24,3.44 h 7.88 q -0.64,-1.8 -1.24,-3.44 -0.6,-1.64 -1.16,-3 -0.52,-1.36 -0.92,-2.4 -0.4,-1.04 -0.64,-1.64 z"
           id="path533"
           style="fill:#272727;fill-opacity:1" />
        <path
           d="m 423.04129,80.334061 q 0,2.76 1.24,4.44 1.24,1.68 3.68,1.68 0.8,0 1.48,-0.04 0.68,-0.08 1.12,-0.16 v -10.84 q -0.56,-0.36 -1.48,-0.6 -0.88,-0.24 -1.8,-0.24 -4.24,0 -4.24,5.76 z m 13.48,10 q -0.8,0.24 -1.84,0.48 -1.04,0.2 -2.2,0.36 -1.12,0.16 -2.32,0.24 -1.16,0.12 -2.24,0.12 -2.6,0 -4.64,-0.76 -2.04,-0.76 -3.44,-2.16 -1.4,-1.44 -2.16,-3.44 -0.72,-2.04 -0.72,-4.56 0,-2.56 0.64,-4.6 0.64,-2.08 1.84,-3.52 1.2,-1.44 2.92,-2.2 1.76,-0.76 4,-0.76 1.24,0 2.2,0.24 1,0.24 2,0.68 v -9.52 l 5.96,-0.96 z"
           id="path535"
           style="fill:#272727;fill-opacity:1" />
        <path
           d="m 447.20124,91.014061 q -2.04,-4 -4.16,-9.36 -2.08,-5.36 -3.96,-11.68 h 6.32 q 0.4,1.56 0.92,3.4 0.56,1.8 1.12,3.68 0.6,1.84 1.16,3.6 0.6,1.76 1.16,3.2 0.52,-1.44 1.12,-3.2 0.6,-1.76 1.16,-3.6 0.6,-1.88 1.12,-3.68 0.56,-1.84 0.96,-3.4 h 6.16 q -1.88,6.32 -4,11.68 -2.08,5.36 -4.12,9.36 z"
           id="path537"
           style="fill:#272727;fill-opacity:1" />
        <path
           d="m 461.92125,80.654061 q 0,-2.8 0.84,-4.88 0.88,-2.12 2.28,-3.52 1.4,-1.4 3.2,-2.12 1.84,-0.72 3.76,-0.72 4.48,0 7.08,2.76 2.6,2.72 2.6,8.04 0,0.52 -0.04,1.16 -0.04,0.6 -0.08,1.08 h -13.52 q 0.2,1.84 1.72,2.92 1.52,1.08 4.08,1.08 1.64,0 3.2,-0.28 1.6,-0.32 2.6,-0.76 l 0.8,4.84 q -0.48,0.24 -1.28,0.48 -0.8,0.24 -1.8,0.4 -0.96,0.2 -2.08,0.32 -1.12,0.12 -2.24,0.12 -2.84,0 -4.96,-0.84 -2.08,-0.84 -3.48,-2.28 -1.36,-1.48 -2.04,-3.48 -0.64,-2 -0.64,-4.32 z m 14,-2.28 q -0.04,-0.76 -0.28,-1.48 -0.2,-0.72 -0.68,-1.28 -0.44,-0.56 -1.16,-0.92 -0.68,-0.36 -1.72,-0.36 -1,0 -1.72,0.36 -0.72,0.32 -1.2,0.88 -0.48,0.56 -0.76,1.32 -0.24,0.72 -0.36,1.48 z"
           id="path539"
           style="fill:#272727;fill-opacity:1" />
        <path
           d="m 486.28123,70.694061 q 1.52,-0.44 3.92,-0.8 2.4,-0.4 5.04,-0.4 2.68,0 4.44,0.72 1.8,0.68 2.84,1.96 1.04,1.28 1.48,3.04 0.44,1.76 0.44,3.92 v 11.88 h -5.96 v -11.16 q 0,-2.88 -0.76,-4.08 -0.76,-1.2 -2.84,-1.2 -0.64,0 -1.36,0.08 -0.72,0.04 -1.28,0.12 v 16.24 h -5.96 z"
           id="path541"
           style="fill:#272727;fill-opacity:1" />
        <path
           d="m 509.64123,64.734061 5.96,-0.96 v 6.2 h 7.16 v 4.96 h -7.16 v 7.4 q 0,1.88 0.64,3 0.68,1.12 2.68,1.12 0.96,0 1.96,-0.16 1.04,-0.2 1.88,-0.52 l 0.84,4.64 q -1.08,0.44 -2.4,0.76 -1.32,0.32 -3.24,0.32 -2.44,0 -4.04,-0.64 -1.6,-0.68 -2.56,-1.84 -0.96,-1.2 -1.36,-2.88 -0.36,-1.68 -0.36,-3.72 z"
           id="path543"
           style="fill:#272727;fill-opacity:1" />
        <path
           d="m 533.56124,91.014061 h -5.96 v -21.04 h 5.96 z m 0.56,-27.12 q 0,1.64 -1.08,2.6 -1.04,0.92 -2.48,0.92 -1.44,0 -2.52,-0.92 -1.04,-0.96 -1.04,-2.6 0,-1.64 1.04,-2.56 1.08,-0.96 2.52,-0.96 1.44,0 2.48,0.96 1.08,0.92 1.08,2.56 z"
           id="path545"
           style="fill:#272727;fill-opacity:1" />
        <path
           d="m 545.20124,86.734061 q 1.64,0 2.32,-0.32 0.68,-0.32 0.68,-1.24 0,-0.72 -0.88,-1.24 -0.88,-0.56 -2.68,-1.24 -1.4,-0.52 -2.56,-1.08 -1.12,-0.56 -1.92,-1.32 -0.8,-0.8 -1.24,-1.88 -0.44,-1.08 -0.44,-2.6 0,-2.96 2.2,-4.68 2.2,-1.72 6.04,-1.72 1.92,0 3.68,0.36 1.76,0.32 2.8,0.72 l -1.04,4.64 q -1.04,-0.36 -2.28,-0.64 -1.2,-0.28 -2.72,-0.28 -2.8,0 -2.8,1.56 0,0.36 0.12,0.64 0.12,0.28 0.48,0.56 0.36,0.24 0.96,0.56 0.64,0.28 1.6,0.64 1.96,0.72 3.24,1.44 1.28,0.68 2,1.52 0.76,0.8 1.04,1.8 0.32,1 0.32,2.32 0,3.12 -2.36,4.72 -2.32,1.6 -6.6,1.6 -2.8,0 -4.68,-0.48 -1.84,-0.48 -2.56,-0.8 l 1,-4.84 q 1.52,0.6 3.12,0.96 1.6,0.32 3.16,0.32 z"
           id="path547"
           style="fill:#272727;fill-opacity:1" />
        <path
           d="m 558.36126,64.734061 5.96,-0.96 v 6.2 h 7.16 v 4.96 h -7.16 v 7.4 q 0,1.88 0.64,3 0.68,1.12 2.68,1.12 0.96,0 1.96,-0.16 1.04,-0.2 1.88,-0.52 l 0.84,4.64 q -1.08,0.44 -2.4,0.76 -1.32,0.32 -3.24,0.32 -2.44,0 -4.04,-0.64 -1.6,-0.68 -2.56,-1.84 -0.96,-1.2 -1.36,-2.88 -0.36,-1.68 -0.36,-3.72 z"
           id="path549"
           style="fill:#272727;fill-opacity:1" />
        <path
           d="m 583.56125,86.854061 q 0.88,0 1.68,-0.04 0.8,-0.04 1.28,-0.12 v -4.52 q -0.36,-0.08 -1.08,-0.16 -0.72,-0.08 -1.32,-0.08 -0.84,0 -1.6,0.12 -0.72,0.08 -1.28,0.36 -0.56,0.28 -0.88,0.76 -0.32,0.48 -0.32,1.2 0,1.4 0.92,1.96 0.96,0.52 2.6,0.52 z m -0.48,-17.44 q 2.64,0 4.4,0.6 1.76,0.6 2.8,1.72 1.08,1.12 1.52,2.72 0.44,1.6 0.44,3.56 v 12.4 q -1.28,0.28 -3.56,0.64 -2.28,0.4 -5.52,0.4 -2.04,0 -3.72,-0.36 -1.64,-0.36 -2.84,-1.16 -1.2,-0.84 -1.84,-2.16 -0.64,-1.32 -0.64,-3.24 0,-1.84 0.72,-3.12 0.76,-1.28 2,-2.04 1.24,-0.76 2.84,-1.08 1.6,-0.36 3.32,-0.36 1.16,0 2.04,0.12 0.92,0.08 1.48,0.24 v -0.56 q 0,-1.52 -0.92,-2.44 -0.92,-0.92 -3.2,-0.92 -1.52,0 -3,0.24 -1.48,0.2 -2.56,0.6 l -0.76,-4.8 q 0.52,-0.16 1.28,-0.32 0.8,-0.2 1.72,-0.32 0.92,-0.16 1.92,-0.24 1.04,-0.12 2.08,-0.12 z"
           id="path551"
           style="fill:#272727;fill-opacity:1" />
      </g>
    </g>
  </g>
</svg>
