<?xml version="1.0" encoding="UTF-8" standalone="no"?>
<svg
   width="114.25001"
   height="114.25001"
   viewBox="0 0 114.25001 114.25001"
   version="1.1"
   id="svg1066"
   sodipodi:docname="logo-novo-hasd-background.svg"
   inkscape:version="1.2 (dc2aedaf03, 2022-05-15)"
   inkscape:export-filename="logo-novo-hasd-background.png"
   inkscape:export-xdpi="122.88"
   inkscape:export-ydpi="122.88"
   xmlns:inkscape="http://www.inkscape.org/namespaces/inkscape"
   xmlns:sodipodi="http://sodipodi.sourceforge.net/DTD/sodipodi-0.dtd"
   xmlns="http://www.w3.org/2000/svg"
   xmlns:svg="http://www.w3.org/2000/svg"
   xmlns:rdf="http://www.w3.org/1999/02/22-rdf-syntax-ns#"
   xmlns:cc="http://creativecommons.org/ns#"
   xmlns:dc="http://purl.org/dc/elements/1.1/">
  <defs
     id="defs1070" />
  <sodipodi:namedview
     id="namedview1068"
     pagecolor="#ffffff"
     bordercolor="#666666"
     borderopacity="1.0"
     inkscape:showpageshadow="2"
     inkscape:pageopacity="0.0"
     inkscape:pagecheckerboard="0"
     inkscape:deskcolor="#d1d1d1"
     showgrid="false"
     inkscape:zoom="4"
     inkscape:cx="53.125"
     inkscape:cy="72.375"
     inkscape:window-width="1920"
     inkscape:window-height="991"
     inkscape:window-x="-9"
     inkscape:window-y="-9"
     inkscape:window-maximized="1"
     inkscape:current-layer="svg1066" />
  <title
     id="title1061">logo-novo-hasd-full</title>
  <g
     id="g4157"
     transform="matrix(1.2909605,0,0,1.2909605,-7.4230229,-7.4230229)">
    <g
       id="g4152">
      <rect
         style="fill:#edce5b;fill-opacity:1"
         id="rect4148"
         width="88.5"
         height="88.5"
         x="5.75"
         y="5.75"
         ry="12" />
      <path
         id="path2404"
         style="fill:#222428;fill-rule:evenodd;stroke:none;stroke-width:1.41827"
         d="m 67.934688,80.090577 h -2.56416 V 39.607195 h -0.02411 C 65.301742,37.04226 64.6035,34.516273 63.279063,32.23773 61.235749,28.723114 57.945846,26.214309 54.017184,25.175275 45.906882,23.029618 37.564211,27.887991 35.420157,36.00437 35.027523,37.490178 34.870705,38.984005 34.9245,40.4469 V 80.090577 H 32.575548 V 43.368109 c 0,-5.396791 1.425162,-10.720266 4.122115,-15.3942 2.696952,-4.673935 6.590115,-8.571173 11.260547,-11.270141 l 2.29744,-1.326572 2.296306,1.326572 c 4.670431,2.698968 8.564743,6.596206 11.260547,11.270141 2.696952,4.673934 4.122114,9.997409 4.122114,15.3942 z M 42.170608,52.871778 V 80.090577 H 36.386367 V 46.408459 c 1.248885,2.63367 3.241837,4.899614 5.784241,6.463319 z m -5.675488,-14.782465 1.713638,1.714921 -1.733097,1.734397 c -0.04581,-0.368874 -0.07559,-0.741186 -0.08935,-1.116933 v -0.814503 h -0.0071 c 0.0099,-0.504051 0.04808,-1.010394 0.115589,-1.517882 z m 2.717545,-6.56413 0.612423,2.325511 -2.334074,0.616319 c 0.455605,-1.065382 1.037124,-2.050574 1.721651,-2.94183 z m 4.847872,-1.909669 -2.334074,-0.6083 c 0.906614,-0.698798 1.895644,-1.28304 2.944199,-1.737832 z m 2.849189,-3.097627 2.599645,2.600449 v 7.024649 c -0.28503,0.04009 -0.558614,0.111121 -0.819618,0.210786 l -3.584094,-6.111629 0.903182,-3.473375 c 0.296475,-0.09393 0.597531,-0.177564 0.900885,-0.25088 z m 3.183447,1.530484 -1.791472,-1.79282 c 0.602126,-0.08249 1.2134,-0.124865 1.830389,-0.124865 0.583817,0 1.1722,0.0378 1.762867,0.114554 z m 3.94927,-1.346047 0.927222,3.55471 -3.573797,6.101319 c -0.2301,-0.0882 -0.469334,-0.155798 -0.717744,-0.198184 v -7.041833 l 2.613388,-2.615343 c 0.117858,0.0275 0.234667,0.05499 0.352568,0.08592 0.133884,0.03551 0.266719,0.07331 0.398363,0.113405 z m 1.971196,2.926938 -0.641044,-2.4584 c 1.130985,0.463957 2.184121,1.071111 3.141098,1.806569 z m 4.265203,4.319953 0.684542,-2.534006 c 0.382337,0.49145 0.733756,1.011539 1.051987,1.557977 0.315948,0.541857 0.590681,1.09975 0.826482,1.6691 z m -2.154351,18.899651 c 2.550417,-1.575161 4.541086,-3.821628 5.784241,-6.493103 v 33.734814 h -5.784241 z m -7.246036,2.259069 c 1.992937,-0.09623 3.952688,-0.588824 5.784241,-1.464041 v 26.446683 h -5.784241 z m -4.637244,-0.492596 c 1.050852,0.277229 2.114285,0.4399 3.175434,0.49145 V 80.090577 H 43.632418 V 53.663368 c 0.824185,0.389495 1.695314,0.710255 2.608793,0.951971 z m -2.228754,-4.61322 0.652489,2.523697 c -1.140132,-0.492597 -2.186404,-1.13068 -3.125071,-1.883322 z m -4.209111,-4.246636 -0.642192,2.433196 C 38.450289,47.245872 37.864203,46.214856 37.414328,45.123127 Z M 39.27792,40.389622 h 7.006789 c 0.03659,0.276083 0.101832,0.544147 0.194601,0.799609 l -6.04638,3.52149 -3.491367,-0.922186 c -0.0824,-0.278375 -0.154535,-0.559039 -0.21979,-0.841996 z m 21.493147,-1.032161 h -6.98733 C 53.74133,39.056175 53.662333,38.7652 53.552502,38.491409 l 6.091027,-3.502016 3.675671,0.993213 c 0.06411,0.215367 0.122539,0.43188 0.176291,0.648393 z m 0.117858,9.121047 -0.686839,-2.648563 2.642008,-0.686198 c -0.494522,1.207433 -1.152726,2.327802 -1.955169,3.334761 z m -7.903107,-6.213584 5.998301,3.528362 0.97072,3.740294 c -0.08127,0.08249 -0.163697,0.163817 -0.247261,0.244007 l -3.746656,-0.971445 -3.519988,-5.987907 c 0.200316,-0.164962 0.382322,-0.350545 0.544884,-0.553311 z m 7.785192,-1.737833 2.700385,2.702405 c -0.01603,0.06072 -0.03092,0.121432 -0.04694,0.183292 v 0 c -0.03546,0.134026 -0.07332,0.268062 -0.112185,0.40095 l -3.736345,0.970299 -6.005179,-3.5318 c 0.08822,-0.231404 0.155683,-0.474266 0.198047,-0.725146 z M 53.22162,53.311679 50.539559,50.627601 V 43.64763 c 0.312502,-0.04124 0.612423,-0.121432 0.895169,-0.233696 l 3.518854,5.985615 -0.961573,3.709362 c -0.25526,0.07561 -0.511683,0.143197 -0.770389,0.202768 z m -7.220849,-0.288685 -0.942099,-3.645211 3.522286,-5.986762 c 0.250693,0.104243 0.515115,0.182146 0.789848,0.231405 v 7.005175 l -2.608807,2.61076 c -0.04921,-0.01262 -0.09843,-0.02405 -0.14767,-0.0378 -0.207181,-0.05499 -0.410944,-0.114553 -0.613558,-0.177563 z m -5.920465,-3.738003 0.940951,-3.562731 6.024637,-3.510033 c 0.160265,0.206204 0.341122,0.396368 0.539155,0.564768 l -3.53488,6.006235 -3.562338,0.922186 c -0.138565,-0.137473 -0.274733,-0.277228 -0.407525,-0.420425 z m 8.059939,4.229453 1.815512,-1.816878 1.860159,1.862701 c -1.2134,0.15007 -2.447393,0.136324 -3.675671,-0.04582 z m 8.904731,-1.724086 c -0.558628,0.326488 -1.135566,0.609444 -1.723949,0.85116 l 0.677677,-2.616487 2.639711,0.683907 c -0.501386,0.394077 -1.032542,0.756077 -1.593439,1.08142 z m 6.698854,-9.943568 -1.903658,-1.903941 1.920833,-1.922271 c 0.172859,1.261275 0.168278,2.547753 -0.01716,3.826212 z m -7.765733,-10.99864 3.617296,-0.943951 c 0.151102,0.144341 0.299907,0.292121 0.445294,0.443335 l -0.979883,3.626883 -6.104755,3.510034 C 52.792352,37.286266 52.608062,37.105266 52.407732,36.94374 Z m -5.941073,6.719927 c 1.282087,0 2.323777,1.042471 2.323777,2.325512 0,1.28304 -1.04169,2.326657 -2.323777,2.326657 -1.282073,0 -2.324912,-1.043617 -2.324912,-2.326657 0,-1.283041 1.042839,-2.325512 2.324912,-2.325512 z m -9.392375,-7.634093 3.452465,0.900419 3.578364,6.101318 c -0.19002,0.152362 -0.365162,0.323052 -0.523129,0.508634 l -6.109336,-3.561584 -0.906615,-3.440153 c 0.164832,-0.174128 0.334258,-0.343673 0.508251,-0.508634 z m -3.811896,6.443844 c 0.05148,-0.192457 0.106512,-0.382621 0.164845,-0.570495 l 3.457032,-0.913022 6.086445,3.547837 c -0.102966,0.246298 -0.179723,0.50749 -0.228951,0.776698 H 39.277863 L 36.75377,36.694005 c 0.02525,-0.105391 0.05148,-0.210784 0.079,-0.316177 z m 33.050183,6.990281 c 0,-5.739317 -1.515605,-11.39959 -4.38197,-16.370228 C 62.633467,22.028388 58.493029,17.884853 53.526122,15.015194 L 50.255721,13.125 46.984128,15.015194 c -4.965757,2.869659 -9.106196,7.013194 -11.973709,11.982687 -2.867499,4.970638 -4.383104,10.630911 -4.383104,16.370228 V 82.040341 H 69.882993 Z M 27.823453,86.875 H 72.176547 V 84.458988 H 27.823453 Z" />
    </g>
  </g>
  <metadata
     id="metadata2469">
    <rdf:RDF>
      <cc:Work
         rdf:about="">
        <dc:title>logo-novo-hasd-full</dc:title>
      </cc:Work>
    </rdf:RDF>
  </metadata>
</svg>
