<?xml version="1.0" encoding="UTF-8" standalone="no"?>
<svg
   width="31.27269"
   height="52"
   viewBox="0 0 31.27269 52"
   version="1.1"
   id="svg1066"
   xmlns="http://www.w3.org/2000/svg"
   xmlns:svg="http://www.w3.org/2000/svg"
   xmlns:rdf="http://www.w3.org/1999/02/22-rdf-syntax-ns#"
   xmlns:cc="http://creativecommons.org/ns#"
   xmlns:dc="http://purl.org/dc/elements/1.1/">
  <defs
     id="defs1070" />
  <title
     id="title1061">logo</title>
  <path
     id="path2404"
     style="fill:#222428;fill-rule:evenodd;stroke:none;stroke-width:1"
     d="M 28.28182,47.216407 H 26.47387 V 18.672192 h -0.017 C 26.42537,16.863695 25.93305,15.08266 24.99921,13.476094 23.5585,10.997992 21.23884,9.229072 18.4688,8.496465 12.75035,6.983595 6.86806,10.40916 5.35632,16.131895 5.07948,17.179515 4.96891,18.23279 5.00684,19.264255 V 47.216407 H 3.35063 V 21.323955 c 0,-3.805195 1.00486,-7.558696 2.90644,-10.854216 1.90158,-3.29552 4.64659,-6.043403 7.93964,-7.946404 l 1.61989,-0.935346 1.61909,0.935346 c 3.29305,1.903001 6.03887,4.650884 7.93964,7.946404 1.90158,3.29552 2.90644,7.049021 2.90644,10.854216 z M 10.11596,28.024847 v 19.19156 H 6.03758 V 23.467659 c 0.88057,1.856961 2.28577,3.454643 4.07838,4.557188 z m -4.0017,-10.422891 1.20826,1.209165 -1.22198,1.222897 c -0.0323,-0.260088 -0.0533,-0.522599 -0.063,-0.787533 v -0.574293 h -0.005 c 0.007,-0.355399 0.0339,-0.712414 0.0815,-1.070236 z m 1.9161,-4.628268 0.43181,1.639683 -1.64572,0.434557 c 0.32124,-0.751185 0.73126,-1.445829 1.21391,-2.07424 z M 11.44852,11.62721 9.8028,11.198307 c 0.63924,-0.492712 1.33659,-0.904652 2.07591,-1.225319 z m 2.00892,-2.18409 1.83297,1.833537 v 4.952973 c -0.20097,0.02827 -0.39387,0.07835 -0.5779,0.148622 l -2.52709,-4.309216 0.63682,-2.449024 c 0.20904,-0.06623 0.42131,-0.125198 0.6352,-0.176892 z m 2.2446,1.079121 -1.26314,-1.26409 c 0.42455,-0.05816 0.85555,-0.08804 1.29058,-0.08804 0.41164,0 0.8265,0.02665 1.24297,0.08077 z m 2.78457,-0.949077 0.65377,2.506372 -2.51983,4.301947 c -0.16224,-0.06219 -0.33092,-0.109851 -0.50607,-0.139737 v -4.965089 l 1.84266,-1.844038 c 0.0831,0.01939 0.16546,0.03877 0.24859,0.06058 0.0944,0.02504 0.18806,0.05169 0.28088,0.07996 z m 1.38986,2.063739 -0.45199,-1.73338 c 0.79744,0.327129 1.53999,0.755224 2.21474,1.273784 z m 3.00733,3.045933 0.48266,-1.786689 c 0.26958,0.346514 0.51736,0.713221 0.74174,1.098506 0.22277,0.382055 0.41648,0.775417 0.58274,1.176857 z m -1.519,13.325856 c 1.79826,-1.110622 3.20185,-2.694572 4.07838,-4.578188 V 47.216407 H 21.3648 Z m -5.10907,1.592835 c 1.40519,-0.06785 2.78698,-0.415171 4.07838,-1.032273 v 18.647153 h -4.07838 z m -3.26965,-0.347322 c 0.74094,0.19547 1.49075,0.310167 2.23895,0.346514 V 47.216407 H 11.14666 V 28.582985 c 0.58112,0.274627 1.19534,0.50079 1.83942,0.67122 z m -1.57146,-3.252711 0.46006,1.77942 C 11.07079,27.433592 10.33308,26.983689 9.67124,26.453013 Z M 8.44684,23.007256 7.99404,24.722865 C 7.49282,24.058106 7.07958,23.331153 6.76238,22.561391 Z M 8.07637,19.223869 h 4.94038 c 0.0258,0.194662 0.0718,0.38367 0.13721,0.563792 L 8.89075,22.27061 6.42904,21.620391 C 6.37094,21.424113 6.32008,21.226221 6.27407,21.026712 Z M 23.23086,18.496108 H 18.3042 c -0.0299,-0.212432 -0.0856,-0.417594 -0.16304,-0.61064 l 4.29469,-2.469218 2.59166,0.700299 c 0.0452,0.151852 0.0864,0.304512 0.1243,0.457172 z m 0.0831,6.431111 -0.48428,-1.867461 1.86284,-0.483828 c -0.34868,0.851343 -0.81277,1.641298 -1.37856,2.351289 z m -5.57236,-4.381103 4.22931,2.487794 0.68444,2.637224 c -0.0573,0.05816 -0.11542,0.115505 -0.17434,0.172046 L 19.8393,25.158229 17.35741,20.936247 c 0.14124,-0.116312 0.26957,-0.247164 0.38419,-0.390131 z m 5.48922,-1.22532 1.904,1.905425 c -0.0113,0.04281 -0.0218,0.08562 -0.0331,0.129236 v 0 c -0.025,0.0945 -0.0517,0.189007 -0.0791,0.282704 l -2.63444,0.684143 -4.23416,-2.490218 c 0.0622,-0.16316 0.10977,-0.334398 0.13964,-0.51129 z m -5.32296,9.014218 -1.89108,-1.892502 v -4.921471 c 0.22034,-0.02908 0.43181,-0.08562 0.63117,-0.164776 l 2.48109,4.220366 -0.67799,2.615415 c -0.17998,0.05331 -0.36078,0.100966 -0.54319,0.142968 z M 12.81655,28.131467 12.15229,25.561284 14.6358,21.34011 c 0.17676,0.0735 0.3632,0.128428 0.55691,0.16316 v 4.939242 l -1.83943,1.840807 c -0.0347,-0.0089 -0.0694,-0.01696 -0.10412,-0.02665 -0.14608,-0.03877 -0.28975,-0.08077 -0.43261,-0.125197 z M 8.64212,25.495858 9.30557,22.983831 13.55345,20.50896 c 0.113,0.145391 0.24052,0.279473 0.38015,0.398209 l -2.49239,4.234905 -2.51175,0.650219 C 8.83176,25.695363 8.73575,25.596824 8.64212,25.495858 Z m 5.68294,2.982123 1.28009,-1.281053 1.31157,1.313362 c -0.85555,0.105812 -1.72562,0.09612 -2.59166,-0.03231 z m 6.27859,-1.215627 c -0.39388,0.230202 -0.80067,0.42971 -1.21553,0.60014 l 0.47782,-1.844845 1.86122,0.482212 c -0.35352,0.277858 -0.72803,0.533099 -1.12351,0.762493 z m 4.72326,-7.011058 -1.34224,-1.34244 1.35435,-1.355364 c 0.12188,0.889306 0.11865,1.796382 -0.0121,2.697804 z m -5.4755,-7.754973 2.5505,-0.665566 c 0.10654,0.101773 0.21146,0.20597 0.31397,0.312589 l -0.6909,2.55726 -4.30437,2.474871 C 17.60519,17.03574 17.47525,16.90812 17.334,16.79423 Z m -4.18896,4.738118 c 0.90398,0 1.63846,0.73503 1.63846,1.639683 0,0.904652 -0.73448,1.64049 -1.63846,1.64049 -0.90397,0 -1.63926,-0.735838 -1.63926,-1.64049 0,-0.904653 0.73529,-1.639683 1.63926,-1.639683 z m -6.62242,-5.382683 2.43428,0.634872 2.52305,4.301946 c -0.13398,0.107428 -0.25747,0.227779 -0.36885,0.35863 l -4.3076,-2.511218 -0.63924,-2.4256 c 0.11622,-0.122775 0.23568,-0.242318 0.35836,-0.35863 z m -2.68771,4.543456 c 0.0363,-0.135698 0.0751,-0.26978 0.11623,-0.402247 l 2.4375,-0.643758 4.29146,2.501526 c -0.0726,0.173661 -0.12672,0.357823 -0.16143,0.547638 H 8.07633 l -1.7797,-1.780227 c 0.0178,-0.07431 0.0363,-0.148621 0.0557,-0.222932 z m 23.30318,4.928741 c 0,-4.046705 -1.06863,-8.037677 -3.08966,-11.542398 C 24.54401,6.277643 21.62465,3.3561 18.12256,1.332747 L 15.81665,0 13.5099,1.332747 C 10.00862,3.3561 7.08926,6.277643 5.06742,9.781557 3.04559,13.286278 1.97696,17.27725 1.97696,21.323955 V 48.591156 H 29.65554 Z M 0,52 H 31.27269 V 50.296507 H 0 Z" />
  <metadata
     id="metadata2469">
    <rdf:RDF>
      <cc:Work
         rdf:about="">
        <dc:title>logo</dc:title>
      </cc:Work>
    </rdf:RDF>
  </metadata>
</svg>
