<?xml version="1.0" encoding="UTF-8" standalone="no"?>
<svg
   width="19.244732"
   height="32"
   viewBox="0 0 19.244732 32"
   version="1.1"
   id="svg1066"
   xmlns="http://www.w3.org/2000/svg"
   xmlns:svg="http://www.w3.org/2000/svg"
   xmlns:rdf="http://www.w3.org/1999/02/22-rdf-syntax-ns#"
   xmlns:cc="http://creativecommons.org/ns#"
   xmlns:dc="http://purl.org/dc/elements/1.1/">
  <defs
     id="defs1070" />
  <title
     id="title1061">logo</title>
  <path
     id="path2404"
     style="fill:#272727;fill-opacity:1;fill-rule:evenodd;stroke:none;stroke-width:0.615385"
     d="M 17.404197,29.056251 H 16.291612 V 11.49058 h -0.01046 C 16.261766,10.377658 15.9588,9.2816373 15.384129,8.2929813 14.497539,6.7679951 13.070056,5.679429 11.365415,5.2285939 7.8463691,4.2975969 4.2264985,6.4056369 3.296197,9.9273201 3.1258339,10.572009 3.0577908,11.220179 3.0811323,11.854926 V 29.056251 H 2.0619262 V 13.122434 c 0,-2.341658 0.6183754,-4.6515056 1.7885784,-6.6795175 1.1702032,-2.0280125 2.85944,-3.7190174 4.8859326,-4.890095 L 9.7332925,0.97722398 10.729656,1.5528215 c 2.026492,1.1710776 3.716227,2.8620825 4.885932,4.890095 1.170203,2.0280119 1.788578,4.3378595 1.788578,6.6795175 z M 6.225206,17.24606 V 29.056251 H 3.7154338 V 14.441637 c 0.5418893,1.142745 1.4066278,2.125934 2.5097722,2.804423 z m -2.4625844,-6.414087 0.7435446,0.744101 -0.7519877,0.752553 c -0.019877,-0.160055 -0.0328,-0.3216 -0.038769,-0.484636 V 11.49058 h -0.00308 c 0.00431,-0.218707 0.020861,-0.438409 0.050154,-0.658607 z M 4.94176,7.9838083 5.2074893,8.9928439 4.1947385,9.2602634 C 4.3924247,8.7979959 4.6447446,8.3705226 4.94176,7.9838083 Z M 7.0452428,7.1552061 6.0324924,6.8912659 C 6.4258711,6.5880584 6.855009,6.334557 7.3099756,6.1372235 Z M 8.2815014,5.8111508 9.4094834,6.9394814 V 9.9874648 C 9.2858096,10.004862 9.1671018,10.03568 9.0538525,10.078924 L 7.4987202,7.4270994 7.8906092,5.9200075 c 0.12864,-0.040757 0.2592676,-0.077045 0.3908922,-0.1088567 z M 9.6627941,6.4752251 8.8854769,5.6973238 c 0.2612614,-0.035791 0.5264927,-0.054179 0.7942032,-0.054179 0.2533169,0 0.5086149,0.0164 0.7649049,0.049705 z m 1.7135809,-0.5840472 0.402321,1.5423829 -1.550665,2.6473512 c -0.09984,-0.03827 -0.203644,-0.0676 -0.3114277,-0.085991 V 6.9394814 L 11.050548,5.8046887 c 0.05114,0.011932 0.101822,0.023858 0.152978,0.03728 0.05809,0.015409 0.115729,0.031809 0.172849,0.049206 z m 0.855299,1.269993 -0.278147,-1.0666951 c 0.490731,0.2013098 0.947686,0.4647534 1.362917,0.7838672 z m 1.850665,1.8744208 0.297021,-1.0995011 c 0.165895,0.2132392 0.318376,0.4389052 0.456456,0.6760038 0.137089,0.2351109 0.256295,0.4771793 0.358609,0.7242193 z m -0.93477,8.2005273 c 1.106622,-0.68346 1.97037,-1.658199 2.509773,-2.817347 v 14.637479 h -2.509773 z m -3.144043,0.980205 c 0.864733,-0.04175 1.715065,-0.25549 2.509773,-0.635245 V 29.056251 H 10.003526 Z M 7.9914341,18.002588 c 0.4559629,0.120289 0.9173847,0.190872 1.3778153,0.213239 V 29.056251 H 6.8594828 V 17.589529 c 0.3576125,0.169002 0.735594,0.308179 1.1319513,0.413059 z M 7.0243815,16.00092 7.3074956,17.095947 C 6.8127941,16.882211 6.3588183,16.605347 5.9515324,16.278777 Z M 5.1980554,14.158311 4.9194092,15.214071 C 4.6109662,14.804988 4.3566647,14.357633 4.1614646,13.883933 Z M 4.9700739,11.830074 h 3.0402338 c 0.015877,0.119791 0.044184,0.236104 0.084437,0.346948 L 5.4712308,13.704991 3.9563323,13.304856 C 3.9205785,13.184069 3.88928,13.06229 3.8609662,12.939515 Z M 14.295914,11.38222 h -3.031791 c -0.0184,-0.130727 -0.05268,-0.256981 -0.100332,-0.375778 l 2.642886,-1.5195187 1.594868,0.4309532 c 0.02782,0.093447 0.05317,0.1873925 0.07649,0.2813365 z m 0.05114,3.957607 -0.298019,-1.149206 1.146364,-0.297741 c -0.214573,0.523903 -0.500167,1.01003 -0.848345,1.446947 z m -3.429145,-2.696063 2.602653,1.53095 0.421194,1.622907 c -0.03526,0.03579 -0.07103,0.07108 -0.107287,0.105874 L 12.2088,15.481987 10.681483,12.883845 c 0.08692,-0.07158 0.165889,-0.152102 0.236424,-0.240081 z m 3.377982,-0.754043 1.171692,1.172569 c -0.007,0.02634 -0.01341,0.05269 -0.02037,0.07953 v 0 c -0.01539,0.05815 -0.03181,0.116312 -0.04868,0.173971 l -1.621193,0.421011 -2.605637,-1.532441 c 0.03828,-0.100406 0.06755,-0.205784 0.08593,-0.31464 z m -3.275668,5.547211 -1.1637414,-1.164617 v -3.028598 c 0.1355937,-0.01789 0.2657294,-0.05269 0.3884124,-0.1014 l 1.526825,2.597149 -0.417225,1.609485 c -0.110757,0.03281 -0.222019,0.06213 -0.334271,0.08798 z M 7.8871071,17.311672 7.4783315,15.730021 9.0066456,13.132376 c 0.1087755,0.04523 0.2235079,0.07903 0.3427141,0.100406 v 3.039533 l -1.1319574,1.132804 c -0.021354,-0.0055 -0.042707,-0.01044 -0.064074,-0.0164 -0.089895,-0.02386 -0.1783078,-0.0497 -0.2662214,-0.07704 z M 5.3182278,15.689759 5.7265046,14.143896 8.3405845,12.620898 c 0.069538,0.08947 0.1480127,0.171984 0.2339386,0.245052 L 7.0407444,15.472046 5.4950523,15.872181 C 5.4349293,15.812531 5.3758462,15.751892 5.3182278,15.689759 Z m 3.4971938,1.835152 0.7877479,-0.78834 0.8071205,0.808223 c -0.5264931,0.06511 -1.0619204,0.05915 -1.5948684,-0.01988 z m 3.8637474,-0.748078 c -0.242388,0.141663 -0.49272,0.264438 -0.748018,0.369317 l 0.294043,-1.135289 1.145366,0.296746 c -0.217551,0.170989 -0.448018,0.328061 -0.691391,0.469226 z m 2.906622,-4.314497 -0.825994,-0.826117 0.833446,-0.83407 c 0.075,0.547265 0.07301,1.105466 -0.0074,1.660187 z M 12.216253,7.6900451 13.785791,7.2804657 c 0.06556,0.06263 0.130129,0.1267508 0.193212,0.1923624 L 13.553834,9.046527 10.904991,10.569524 C 10.833963,10.483532 10.754,10.404997 10.667077,10.334911 Z M 9.6384307,10.60581 c 0.5562953,0 1.0082833,0.452326 1.0082833,1.009036 0,0.556709 -0.451988,1.009532 -1.0082833,1.009532 -0.5562893,0 -1.0087752,-0.452823 -1.0087752,-1.009532 0,-0.55671 0.4524859,-1.009036 1.0087752,-1.009036 z M 5.5630954,7.2933893 7.0611141,7.6840802 8.6137602,10.331431 c -0.08245,0.06611 -0.1584433,0.140172 -0.2269848,0.220696 L 5.7359447,9.0067619 5.3425662,7.514085 C 5.4140862,7.4385313 5.4876001,7.3649664 5.5630954,7.2933893 Z M 3.9091201,10.089363 c 0.022338,-0.08351 0.046216,-0.1660188 0.071526,-0.2475368 l 1.5,-0.3961591 2.6408986,1.5394009 c -0.044677,0.106868 -0.077981,0.220198 -0.099342,0.337008 H 4.9700493 l -1.0952,-1.095524 c 0.010954,-0.04573 0.022338,-0.09146 0.034277,-0.137189 z m 14.3404189,3.033071 c 0,-2.49028 -0.657619,-4.9462627 -1.90133,-7.1030142 C 15.104006,3.8631649 13.307477,2.0652923 11.152345,0.820152 L 9.7333233,0 8.3137847,0.820152 C 6.1591507,2.0652923 4.3626216,3.8631649 3.1184123,6.0194198 1.8742093,8.1761713 1.2165908,10.632154 1.2165908,13.122434 V 29.90225 H 18.249563 Z M 0,32 H 19.244732 V 30.951697 H 0 Z" />
  <metadata
     id="metadata2469">
    <rdf:RDF>
      <cc:Work
         rdf:about="">
        <dc:title>logo</dc:title>
      </cc:Work>
    </rdf:RDF>
  </metadata>
</svg>
